<?xml version="1.0" encoding="UTF-8"?>
<svg width="3600pt" height="3600pt" version="1.1" viewBox="0 0 3600 3600" xmlns="http://www.w3.org/2000/svg">
 <path d="m1463.3 1371.9h195.89c0-77.766 63-140.77 140.77-140.77s140.77 63 140.77 140.77h195.89c53.578 0 97.172 43.875 97.172 97.172v185.77h-3.2344c-77.766 0-140.77 63-140.77 140.77s63 140.77 140.77 140.77h3.2344v194.06c0 53.578-43.875 97.172-97.172 97.172h-189c-0.70312 77.062-63.422 139.36-140.77 139.36s-140.06-62.297-140.77-139.36h-202.64c-53.578 0-97.172-43.875-97.172-97.172v-187.17c3.2344 0.42188 6.8906 0.42188 10.125 0.42188 77.766 0 140.77-63 140.77-140.77s-63-140.77-140.77-140.77c-3.2344 0-6.8906 0-10.125 0.42188v-192.94c-0.14062-53.859 43.453-97.734 97.031-97.734zm1421-16.875v889.88h-227.11c-53.578 0-97.172-43.875-97.172-97.172v-206.58c-77.766 0-140.77-63-140.77-140.77s63-140.77 140.77-140.77v-206.58c0-53.578 43.875-97.172 97.172-97.172l227.11-0.14062zm-639.43 1529.3h-889.88v-227.11c0-53.578 43.875-97.172 97.172-97.172h206.58c0 77.766 63 140.77 140.77 140.77 77.766 0 140.77-63 140.77-140.77h206.58c53.578 0 97.172 43.875 97.172 97.172l0.14063 227.11zm-1529.3-639.43v-889.88h227.11c53.578 0 97.172 43.875 97.172 97.172v206.58c77.766 0 140.77 63 140.77 140.77s-63 140.77-140.77 140.77v206.58c0 53.578-43.875 97.172-97.172 97.172l-227.11 0.14062zm639.43-1529.3h889.88v227.11c0 53.578-43.875 97.172-97.172 97.172h-206.58c0-77.766-63-140.77-140.77-140.77s-140.77 63-140.77 140.77h-206.58c-53.578 0-97.172-43.875-97.172-97.172l-0.14062-227.11z" fill="#fff" fill-rule="evenodd"/>
</svg>
